<?xml version="1.0" standalone="no"?>
<!DOCTYPE svg PUBLIC "-//W3C//DTD SVG 20010904//EN"
 "http://www.w3.org/TR/2001/REC-SVG-20010904/DTD/svg10.dtd">
<svg version="1.0" xmlns="http://www.w3.org/2000/svg"
 width="225.000000pt" height="225.000000pt" viewBox="0 0 225.000000 225.000000"
 preserveAspectRatio="xMidYMid meet">
<metadata>
Created by potrace 1.14, written by Peter Selinger 2001-2017
</metadata>
<g transform="translate(0.000000,225.000000) scale(0.100000,-0.100000)"
fill="#000000" stroke="none">
<path d="M672 1638 c-39 -42 -54 -117 -32 -158 13 -25 79 -44 97 -28 21 17 16
27 -23 43 -35 14 -36 17 -31 51 11 64 48 82 95 46 l22 -17 -58 -173 -57 -173
-85 -2 c-66 -2 -96 -8 -134 -26 -202 -99 -244 -367 -81 -525 114 -111 303
-116 430 -11 54 44 104 140 112 217 11 109 -48 232 -143 295 l-52 35 20 59
c11 32 21 59 23 59 2 0 83 -93 181 -206 167 -194 177 -208 178 -247 0 -70 -12
-114 -35 -120 -13 -4 -20 -12 -17 -24 2 -14 14 -19 57 -21 35 -2 57 1 62 9 10
16 0 39 -17 39 -10 0 -12 9 -8 33 9 51 12 57 32 57 11 0 25 7 32 15 7 8 27 15
46 15 31 0 34 -3 45 -42 40 -152 161 -248 314 -248 129 0 238 70 293 188 54
118 27 267 -65 359 -68 68 -122 88 -240 88 l-101 0 -33 80 c-18 43 -41 87 -52
98 -29 29 -14 55 36 59 34 2 42 7 42 23 0 19 -7 20 -105 20 -98 0 -105 -1
-105 -20 0 -15 8 -21 36 -25 33 -5 36 -7 28 -27 l-8 -23 -286 0 c-157 0 -285
1 -285 3 0 2 13 42 29 89 16 47 26 90 22 95 -3 6 -24 22 -45 37 -50 33 -104
35 -134 4z m649 -355 c-112 -301 -115 -308 -122 -283 -12 43 -10 72 8 85 9 7
14 19 10 29 -8 20 -113 24 -120 4 -7 -21 4 -38 23 -38 13 0 19 -11 24 -47 3
-25 5 -47 4 -49 -3 -3 -312 356 -316 368 -2 4 114 8 257 8 l260 0 -28 -77z
m135 -6 c19 -43 34 -79 34 -81 0 -2 -17 -15 -38 -29 -50 -33 -99 -107 -119
-179 -16 -56 -18 -58 -50 -58 -18 0 -33 5 -33 10 0 23 155 420 163 417 5 -1
24 -37 43 -80z m-796 -111 c0 -8 -18 -65 -41 -127 -52 -146 -52 -154 -14 -154
25 0 31 5 33 25 2 14 19 73 38 133 25 76 40 107 51 107 9 0 40 -24 69 -52 41
-42 56 -66 69 -112 29 -98 3 -199 -69 -268 -52 -51 -100 -71 -178 -76 -157
-10 -282 110 -281 268 0 77 17 122 70 180 51 57 122 90 196 90 42 0 57 -4 57
-14z m1095 -10 c56 -26 119 -90 143 -145 23 -53 20 -156 -5 -211 -43 -95 -142
-160 -244 -160 -127 0 -228 74 -264 194 l-14 45 152 3 c131 3 152 5 155 19 2
9 -3 23 -10 30 -8 8 -35 63 -61 123 -36 83 -44 112 -35 118 28 17 132 8 183
-16z m-197 -114 c23 -54 42 -101 42 -105 0 -10 -218 -9 -224 1 -2 4 4 31 14
61 17 51 90 141 115 141 5 0 29 -44 53 -98z"/>
</g>
</svg>
